<?xml version="1.0" encoding="iso-8859-1"?>
<!-- Generator: Adobe Illustrator 19.0.0, SVG Export Plug-In . SVG Version: 6.00 Build 0)  -->
<svg version="1.1" id="Capa_1" xmlns="http://www.w3.org/2000/svg" xmlns:xlink="http://www.w3.org/1999/xlink" x="0px" y="0px"
	 viewBox="0 0 489.6 489.6" style="enable-background:new 0 0 489.6 489.6;" xml:space="preserve">
<g>
	<g>
		<g>
			<path d="M303.899,347.4c-26,0-47,21-47,47c0,17.9,10.1,33.8,24.9,41.6v53.6l19-13.6l24.5,13.6V436c14.8-7.8,24.9-23.7,24.9-41.6
				C350.899,368.4,329.899,347.4,303.899,347.4z"/>
			<path d="M414.999,0c-113.5,0-226.9,0-340.4,0c95.2,153.9-95.2,307.8,0,461.6c62.6,0,124.7,0,187.3,0v-14.8
				c-15.5-12.4-24.9-31.9-24.9-52.5c0-36.9,29.9-67.2,67.2-67.2c36.9,0,67.2,29.9,67.2,67.2c0,20.6-9.3,39.6-24.9,52.5V462l0,0
				c28,0,40.8,0,68.8,0C319.799,307.8,510.199,153.9,414.999,0z M144.499,62.9h233.9c5.4,0,10.1,4.7,10.1,10.1s-4.7,10.1-10.1,10.1
				h-233.9c-5.4,0-10.1-4.7-10.1-10.1C134.399,67.2,139.099,62.9,144.499,62.9z M216.799,399.1h-117c-5.4,0-10.1-4.7-10.1-10.1
				s4.7-10.1,10.1-10.1h117c5.4,0,10.1,4.7,10.1,10.1C226.899,394.4,222.599,399.1,216.799,399.1z M349.699,319.8h-233.9
				c-5.4,0-10.1-4.7-10.1-10.1s4.7-10.1,10.1-10.1h233.9c5.4,0,10.1,4.7,10.1,10.1S355.199,319.8,349.699,319.8z M368.799,240.9
				h-233.6c-5.4,0-10.1-4.7-10.1-10.1s4.7-10.1,10.1-10.1h233.9c5.4,0,10.1,4.7,10.1,10.1S374.599,240.9,368.799,240.9z
				 M378.499,162h-234c-5.4,0-10.1-4.7-10.1-10.1s4.7-10.1,10.1-10.1h233.9c5.4,0,10.1,4.7,10.1,10.1
				C388.599,157.4,383.899,162,378.499,162z"/>
		</g>
	</g>
</g>
<g>
</g>
<g>
</g>
<g>
</g>
<g>
</g>
<g>
</g>
<g>
</g>
<g>
</g>
<g>
</g>
<g>
</g>
<g>
</g>
<g>
</g>
<g>
</g>
<g>
</g>
<g>
</g>
<g>
</g>
</svg>
